<svg width="1200" height="720" viewBox="0 0 1200 720" xmlns="http://www.w3.org/2000/svg">
  <defs>
    <linearGradient id="bg4" x1="0" y1="0" x2="1" y2="1">
      <stop offset="0%" stop-color="#1e3558"/>
      <stop offset="100%" stop-color="#0a1323"/>
    </linearGradient>
  </defs>
  <rect width="1200" height="720" fill="url(#bg4)"/>
  <rect x="86" y="72" width="1028" height="576" rx="18" fill="#0e1a2f" stroke="#5a84c7" stroke-opacity="0.45"/>
  <rect x="122" y="112" width="956" height="58" rx="10" fill="#132744"/>
  <rect x="122" y="202" width="300" height="412" rx="12" fill="#132744"/>
  <rect x="450" y="202" width="300" height="412" rx="12" fill="#132744"/>
  <rect x="778" y="202" width="300" height="412" rx="12" fill="#132744"/>
  <rect x="146" y="236" width="170" height="10" rx="5" fill="#6ca0ef"/>
  <rect x="474" y="236" width="170" height="10" rx="5" fill="#6ca0ef"/>
  <rect x="802" y="236" width="170" height="10" rx="5" fill="#6ca0ef"/>
  <rect x="146" y="274" width="252" height="70" rx="10" fill="#1a355d"/>
  <rect x="474" y="274" width="252" height="70" rx="10" fill="#1a355d"/>
  <rect x="802" y="274" width="252" height="70" rx="10" fill="#1a355d"/>
  <rect x="146" y="364" width="252" height="70" rx="10" fill="#1a355d"/>
  <rect x="474" y="364" width="252" height="70" rx="10" fill="#1a355d"/>
  <rect x="802" y="364" width="252" height="70" rx="10" fill="#1a355d"/>
</svg>
