<svg width="1200" height="720" viewBox="0 0 1200 720" xmlns="http://www.w3.org/2000/svg">
  <defs>
    <linearGradient id="bg1" x1="0" y1="0" x2="1" y2="1">
      <stop offset="0%" stop-color="#1b2f52"/>
      <stop offset="100%" stop-color="#0a1324"/>
    </linearGradient>
  </defs>
  <rect width="1200" height="720" fill="url(#bg1)"/>
  <rect x="88" y="76" width="1024" height="568" rx="18" fill="#0d1a30" stroke="#4e77b6" stroke-opacity="0.5"/>
  <rect x="124" y="124" width="952" height="56" rx="10" fill="#132744"/>
  <rect x="124" y="212" width="280" height="384" rx="12" fill="#132744"/>
  <rect x="436" y="212" width="640" height="178" rx="12" fill="#132744"/>
  <rect x="436" y="418" width="304" height="178" rx="12" fill="#132744"/>
  <rect x="772" y="418" width="304" height="178" rx="12" fill="#132744"/>
  <rect x="148" y="148" width="260" height="10" rx="5" fill="#6ca0ef"/>
  <rect x="148" y="236" width="170" height="10" rx="5" fill="#6ca0ef"/>
  <rect x="148" y="258" width="230" height="8" rx="4" fill="#7b8fae"/>
  <rect x="460" y="236" width="220" height="10" rx="5" fill="#6ca0ef"/>
  <rect x="460" y="258" width="380" height="8" rx="4" fill="#7b8fae"/>
  <rect x="460" y="441" width="130" height="10" rx="5" fill="#6ca0ef"/>
  <rect x="796" y="441" width="130" height="10" rx="5" fill="#6ca0ef"/>
</svg>
