<svg width="1200" height="720" viewBox="0 0 1200 720" xmlns="http://www.w3.org/2000/svg">
  <defs>
    <linearGradient id="bg3" x1="0" y1="0" x2="1" y2="1">
      <stop offset="0%" stop-color="#243659"/>
      <stop offset="100%" stop-color="#0a1324"/>
    </linearGradient>
  </defs>
  <rect width="1200" height="720" fill="url(#bg3)"/>
  <rect x="90" y="72" width="1020" height="576" rx="18" fill="#0f1b31" stroke="#4f79bc" stroke-opacity="0.52"/>
  <rect x="124" y="112" width="952" height="58" rx="10" fill="#132744"/>
  <rect x="124" y="202" width="286" height="412" rx="12" fill="#132744"/>
  <rect x="436" y="202" width="286" height="412" rx="12" fill="#132744"/>
  <rect x="748" y="202" width="328" height="412" rx="12" fill="#132744"/>
  <rect x="150" y="230" width="160" height="10" rx="5" fill="#6ca0ef"/>
  <rect x="462" y="230" width="180" height="10" rx="5" fill="#6ca0ef"/>
  <rect x="774" y="230" width="190" height="10" rx="5" fill="#6ca0ef"/>
  <rect x="150" y="264" width="232" height="78" rx="10" fill="#1b355d"/>
  <rect x="150" y="356" width="232" height="78" rx="10" fill="#1b355d"/>
  <rect x="462" y="264" width="232" height="78" rx="10" fill="#1b355d"/>
  <rect x="462" y="356" width="232" height="78" rx="10" fill="#1b355d"/>
  <rect x="774" y="264" width="272" height="78" rx="10" fill="#1b355d"/>
  <rect x="774" y="356" width="272" height="78" rx="10" fill="#1b355d"/>
</svg>
